<svg width="379" height="379" xmlns="http://www.w3.org/2000/svg" xmlns:xlink="http://www.w3.org/1999/xlink" overflow="hidden"><g transform="translate(-365 -55)"><path d="M365 110.785C365 79.9759 389.976 55 420.785 55L687.215 55C718.024 55 743 79.9759 743 110.785L743 377.215C743 408.024 718.024 433 687.215 433L420.785 433C389.976 433 365 408.024 365 377.215Z" fill="#FFFFFF" fill-rule="evenodd" fill-opacity="0"/><path d="M653.868 151.088C668.859 151.088 680.825 154.865 689.765 162.42 698.705 169.975 703.45 180.277 704 193.327L673.879 193.327C673.467 188.519 671.438 184.742 667.794 181.994 664.149 179.247 659.507 177.874 653.868 177.874 647.679 177.874 642.934 179.453 639.633 182.613 636.332 185.772 634.681 190.374 634.681 196.418L634.681 223.203C634.681 229.11 636.332 233.677 639.633 236.905 642.934 240.133 647.679 241.747 653.868 241.747 659.507 241.747 664.149 240.408 667.794 237.73 671.438 235.051 673.467 231.239 673.879 226.294L704 226.294C703.45 239.344 698.705 249.646 689.765 257.201 680.825 264.756 668.859 268.533 653.868 268.533 643.828 268.533 635.025 266.644 627.461 262.867 619.896 259.09 614.051 253.801 609.925 247.001 605.798 240.202 603.735 232.269 603.735 223.203L603.735 196.418C603.735 187.214 605.798 179.247 609.925 172.516 614.051 165.786 619.896 160.531 627.461 156.754 635.025 152.977 643.828 151.088 653.868 151.088ZM455.37 140.373C449.456 140.373 444.849 141.816 441.547 144.701 438.247 147.585 436.596 151.431 436.596 156.239 436.596 164.068 441.341 169.082 450.831 171.28L469.812 175.607C481.64 178.217 491.027 183.883 497.972 192.606 504.918 201.328 508.391 211.802 508.391 224.027 508.391 232.956 506.293 240.786 502.098 247.516 497.903 254.247 491.921 259.433 484.15 263.073 476.379 266.713 467.198 268.533 456.608 268.533 451.313 268.533 446.353 268.069 441.728 267.142L434.988 264.957 434.988 344.124 489.309 344.124 488.54 338.972 518.867 338.972C518.867 342.818 520.311 345.703 523.199 347.626 526.087 349.549 530.145 350.511 535.371 350.511L544.449 350.511C550.088 350.511 554.455 349.549 557.549 347.626 560.644 345.703 562.191 342.956 562.191 339.384 562.191 335.951 560.953 333.443 558.477 331.864 556.002 330.284 552.22 329.22 547.131 328.67L521.136 325.58C511.096 324.343 503.394 320.6 498.03 314.35 492.666 308.1 489.984 300.305 489.984 290.964 489.984 268.024 504.7 256.555 534.133 256.555L538.2 256.555 530.79 244.838C529.14 240.305 528.315 235.154 528.315 229.385L528.315 180.964 497.782 180.964 497.782 157.063 474.763 157.063C474.763 151.843 473.044 147.757 469.605 144.804 466.167 141.85 461.422 140.373 455.37 140.373ZM455.37 114C470.499 114 482.534 117.88 491.474 125.641 498.178 131.462 502.369 138.809 504.046 147.682L504.534 153.148 528.315 153.148 528.315 121.212 559.261 121.212 559.261 153.148 603.616 153.148 603.616 180.964 559.261 180.964 559.261 228.355C559.261 231.376 560.052 233.849 561.633 235.772 563.215 237.695 565.519 238.657 568.545 238.657L602.585 238.657 602.585 266.473 577.791 266.473 586.329 276.232C588.392 280.284 589.424 284.851 589.424 289.934L559.096 289.934C559.096 286.637 557.755 284.096 555.074 282.31 552.391 280.525 548.644 279.631 543.83 279.631L534.133 279.631C529.319 279.631 525.675 280.525 523.199 282.31 520.724 284.096 519.486 286.568 519.486 289.728 519.486 292.887 520.689 295.016 523.096 296.115 525.503 297.214 528.907 298.038 533.308 298.588L558.065 301.678C569.205 303.052 577.595 306.967 583.234 313.423 588.873 319.879 591.693 328.395 591.693 338.972 591.693 350.099 587.704 358.718 579.727 364.831 571.75 370.944 559.99 374 544.449 374L535.371 374C526.019 374 517.835 372.523 510.821 369.57 507.314 368.093 504.193 366.333 501.46 364.29L495.848 358.726 495.848 371.939 404.042 371.939 404.042 223.536 404 223.203 404.042 223.203 404.042 221.527 434.988 221.527 434.988 225.126C435.857 227.655 436.149 233.334 440.206 236.699 444.264 240.065 449.731 241.747 456.608 241.747 463.347 241.747 468.608 240.133 472.39 236.905 476.172 233.677 478.064 229.385 478.064 224.027 478.064 219.769 476.826 215.958 474.35 212.592 471.875 209.227 468.23 206.995 463.416 205.895L445.055 201.569C433.227 198.821 423.84 193.499 416.894 185.6 409.948 177.702 406.476 168.258 406.476 157.269 406.476 143.808 410.843 133.231 419.576 125.538 428.31 117.846 440.241 114 455.37 114Z" fill="#548235" fill-rule="evenodd"/><path d="M455.35 140C461.392 140 466.129 141.483 469.562 144.448 472.995 147.414 474.711 151.517 474.711 156.758L497.693 156.758 497.693 180.757 528.178 180.757 528.178 229.377C528.178 235.17 528.184 240.972 530.65 244.893L538.047 256.658 533.987 256.658C504.601 256.658 489.909 268.175 489.909 291.209 489.909 300.588 492.586 308.415 497.942 314.691 503.297 320.966 510.986 324.725 521.011 325.966L546.964 329.069C552.045 329.621 555.821 330.69 558.292 332.276 560.764 333.862 562 336.38 562 339.828 562 343.414 560.455 346.172 557.365 348.103 554.276 350.034 549.916 351 544.286 351L535.223 351C530.005 351 525.954 350.034 523.071 348.103 520.187 346.172 518.745 343.276 518.745 339.414L488.467 339.414 489.235 344.586 435 344.586 435 265.095 441.73 267.289C446.347 268.22 451.299 268.686 456.586 268.686 467.159 268.686 476.325 266.858 484.083 263.203 491.842 259.548 497.815 254.341 502.003 247.583 506.192 240.825 508.286 232.963 508.286 223.997 508.286 211.722 504.818 201.205 497.884 192.447 490.949 183.688 481.578 177.999 469.768 175.378L450.818 171.034C441.343 168.827 436.606 163.792 436.606 155.93 436.606 151.103 438.254 147.241 441.549 144.345 444.845 141.448 449.445 140 455.35 140Z" stroke="#385723" stroke-width="12" stroke-miterlimit="8" fill="#385723" fill-rule="evenodd"/></g></svg>